# xmcd
#
# Track frame offsets: 
#        150
#        12988
#        19512
#        27693
#        33675
#        43235
#        50127
#        61307
#        70212
#        76855
#        85489
#        99213
#
# Disc length: 1634 seconds
#
# Revision: 0
# Processed by: cddbd v1.5.2PL0 Copyright (c) Steve Scherf et al.
# Submitted via: ExactAudioCopy v0.99pb3
#
DISCID=9d06600c
DTITLE=Replacements - Stink
DYEAR=1982
DGENRE=Ambient
TTITLE0=Kids Don't Follow
TTITLE1=Fuck School
TTITLE2=Stuck in the Middle
TTITLE3=God Damn Job
TTITLE4=White and Lazy
TTITLE5=Dope Smokin' Moron
TTITLE6=Go
TTITLE7=Gimme Noize
TTITLE8=Staples in Her Stomach
TTITLE9=Hey, Good Lookin'
TTITLE10=Rock Around the Clock
TTITLE11=You're Getting Married
EXTD=
EXTT0=
EXTT1=
EXTT2=
EXTT3=
EXTT4=
EXTT5=
EXTT6=
EXTT7=
EXTT8=
EXTT9=
EXTT10=
EXTT11=
PLAYORDER=
